<svg class="svg-icon" style="width: 1em; height: 1em;vertical-align: middle;fill: currentColor;overflow: hidden;" viewBox="0 0 1024 1024" version="1.1" xmlns="http://www.w3.org/2000/svg"><path d="M533.162667 846.813867a23.825067 23.825067 0 0 1-32.768 0C326.587733 682.0864 238.933333 550.570667 238.933333 448.477867a277.845333 277.845333 0 1 1 555.690667 0c0 102.126933-87.688533 233.608533-261.461333 398.336z m-246.613334-398.336c0 82.090667 76.288 199.2704 230.229334 348.091733 153.941333-148.821333 230.1952-266.001067 230.1952-348.0576a230.1952 230.1952 0 1 0-460.424534 0z m230.229334 87.3472a119.057067 119.057067 0 1 1 0-238.148267 119.057067 119.057067 0 0 1 0 238.148267z m0-47.650134a71.441067 71.441067 0 1 0 0-142.882133 71.441067 71.441067 0 0 0 0 142.882133z" fill="#999999" /></svg>