<svg xmlns="http://www.w3.org/2000/svg" width="134.438" height="38.571" viewBox="0 0 134.438 38.571">
  <g id="rr" transform="translate(-43 -208)">
    <path id="Path_757" data-name="Path 757" d="M651.3,346.609h3.122v2.219a3.4,3.4,0,0,1,3.513-2.426v3.268h-.161c-2.074,0-3.344,1.255-3.344,3.88v4.064h-3.122v-11Zm6.987,5.564a5.816,5.816,0,0,0,10.247,3.635l-1.791-1.584a3.6,3.6,0,0,1-2.671,1.133,2.565,2.565,0,0,1-2.694-2.158h7.661c.023-.291.038-.574.038-.819,0-3.122-1.684-5.977-5.357-5.977a5.478,5.478,0,0,0-5.441,5.732v.038m3.069-.926a2.453,2.453,0,0,1,2.38-2.342,2.355,2.355,0,0,1,2.319,2.342Zm9.107,6.367h3.122v-6.138c0-1.477.758-2.235,1.951-2.235s1.89.758,1.89,2.235v6.138h3.122v-7.125c0-2.525-1.378-4.087-3.735-4.087a3.884,3.884,0,0,0-3.222,1.768v-1.561h-3.122v11Zm11.862-3.122c0,2.548,1.293,3.306,3.206,3.306a4.6,4.6,0,0,0,2.464-.635v-2.5a3.187,3.187,0,0,1-1.538.39c-.7,0-1-.352-1-1.064v-4.7h2.587v-2.671h-2.587V343.8h-3.122v10.691m7.224,3.122h3.122V353.55c0-2.625,1.27-3.88,3.344-3.88h.161V346.4a3.4,3.4,0,0,0-3.513,2.426v-2.219h-3.122v11Zm6.964-5.441a5.719,5.719,0,0,0,5.931,5.686,5.777,5.777,0,0,0,5.977-5.732v-.038a5.719,5.719,0,0,0-5.931-5.686,5.777,5.777,0,0,0-5.977,5.732v.038m8.831,0a2.823,2.823,0,0,1-2.854,3,2.923,2.923,0,0,1-2.893-3.038V352.1a2.823,2.823,0,0,1,2.854-3,2.923,2.923,0,0,1,2.893,3.038v.038m3.788,0a5.719,5.719,0,0,0,5.931,5.686,5.777,5.777,0,0,0,5.977-5.732v-.038a5.719,5.719,0,0,0-5.931-5.686,5.777,5.777,0,0,0-5.977,5.732v.038m8.824,0a2.823,2.823,0,0,1-2.855,3,2.923,2.923,0,0,1-2.893-3.038V352.1a2.823,2.823,0,0,1,2.855-3,2.923,2.923,0,0,1,2.893,3.038v.038m4.423,5.441H725.5v-6.138c0-1.477.719-2.235,1.89-2.235s1.829.758,1.829,2.235v6.138h3.122v-6.138c0-1.477.719-2.235,1.89-2.235s1.829.758,1.829,2.235v6.138h3.122V350.45c0-2.648-1.393-4.048-3.719-4.048a4.516,4.516,0,0,0-3.612,1.745,3.287,3.287,0,0,0-3.1-1.745,3.926,3.926,0,0,0-3.245,1.768v-1.561h-3.122v11Z" transform="translate(-561.748 -120.407)" fill="#0060a8"/>
    <path id="Path_758" data-name="Path 758" d="M127.431,246.57h3.6L131,211.589l10.6.008a11.9,11.9,0,0,1,3.428,23.288l7.515,11.686h4.278l-6.559-10.232A15.492,15.492,0,0,0,141.6,208l-14.2.008Z" transform="translate(-77.941)" fill="#0060a8"/>
    <path id="Path_759" data-name="Path 759" d="M43,324.142h3.6V295.6l17.012.008a5.441,5.441,0,1,1,0,10.882H55.987v-.008l-.008.008L67.42,324.142h4.286l-9.115-14.058h1.018a9.038,9.038,0,0,0,0-18.076L43,292Z" transform="translate(0 -77.572)" fill="#f09021"/>
  </g>
</svg>
