<?xml version="1.0" encoding="utf-8"?>
<svg viewBox="-4.217 172.891 511.245 137.351" xmlns="http://www.w3.org/2000/svg">
  <defs/>
  <g transform="matrix(3.042936, 0, 0, 3.332307, 5.598682, 170.833069)" style="">
    <path id="Path_758" data-name="Path 758" d="M 6.49 40.57 L 10.09 40.57 L 10.059 5.589 L 20.659 5.597 C 29.82 5.616 35.524 15.545 30.927 23.469 C 29.415 26.075 26.971 28.011 24.087 28.885 L 31.602 40.571 L 35.88 40.571 L 29.321 30.339 C 39.211 23.674 38.177 8.803 27.46 3.571 C 25.342 2.537 23.016 1.999 20.659 2 L 6.459 2.008 L 6.49 40.57 Z" style="fill-rule: evenodd; fill: rgb(255, 255, 255);"/>
    <path id="Path_759" data-name="Path 759" d="M 0 40.57 L 3.6 40.57 L 3.6 12.028 L 20.612 12.036 C 24.8 12.036 27.418 16.57 25.324 20.198 C 24.352 21.881 22.556 22.918 20.612 22.918 L 12.987 22.918 L 12.987 22.91 L 12.979 22.918 L 24.42 40.57 L 28.706 40.57 L 19.591 26.512 L 20.609 26.512 C 27.566 26.512 31.915 18.98 28.436 12.955 C 26.822 10.159 23.838 8.436 20.609 8.436 L 0 8.428 L 0 40.57 Z" style="fill-rule: evenodd; fill: rgb(255, 255, 255);"/>
    <text style="fill: rgb(255, 255, 255); fill-rule: evenodd; font-family: Arial, sans-serif; font-size: 21px; font-weight: 700; white-space: pre;" x="40.278" y="12.062" dx="4.596" dy="19.15">roomFinder</text>
  </g>
</svg>