<svg xmlns="http://www.w3.org/2000/svg" width="59.942" height="23.424" viewBox="0 0 59.942 23.424">
  <g id="logo-contact" transform="translate(0 0)">
    <path id="Path_432" data-name="Path 432" d="M88.515,175.2c.378,0,2.94-4.246,2.94-4.563h-.439l-20.228-.061h-.622a1.129,1.129,0,0,0-.683.122l-3.5,4.441c-.122.061-.122.122-.061.122H85.843C86.27,175.262,88.332,175.2,88.515,175.2ZM66.286,159.9h7.491c-.183.561-4.563,7.93-5.063,8.747-.439.683-4.868,8.247-5.063,8.674L77.51,160.159c.561-.622,2.5-2.867,2.623-3.562.317-1.122-.817-1.244-1.879-1.244l-9.553.061ZM55.611,175.2h8.93c.183-.5,2.367-4,2.5-4.563H60.3c0-.317,1.806-3.562,2.123-4.185.744-1.379,1.44-2.745,2.184-4.185.744-1.379,1.44-2.745,2.184-4.124.378-.683.744-1.379,1.122-2.062A23.65,23.65,0,0,0,68.97,153.9c-.244.244-1.745,2.245-2.062,2.684-2.684,3.623-5.563,7.186-8.174,10.8l-4.185,5.429C53.61,174.079,53.305,175.2,55.611,175.2Zm8.369-15.36a21.247,21.247,0,0,0,1.684-2.184c.561-.817,1.244-1.5,1.745-2.306-7.491,0-15.043.061-22.546,0H44.3c-1,0-3.428,4.246-3.5,4.563l.878.061c7.369-.061,14.738-.061,22.107-.061C63.98,159.841,63.858,159.964,63.98,159.841Z" transform="translate(-36.32 -153.9)" fill="#039dff"/>
    <path id="Path_433" data-name="Path 433" d="M9.507,218.771c-3.062,1.061-3.745-.378-2.623-2.245a3.808,3.808,0,0,1,1.684-1.562,3.188,3.188,0,0,1,2.806.061c.183-.622.878-1.305,1.061-1.879-1.684-1.305-6.429-.183-7.991,3.623-1.183,2.684.561,5.124,4.063,4.185.683-.183.622-.122.744-.817A10.37,10.37,0,0,0,9.507,218.771Zm46.958-3.928h2.062l-3.062,6.124,2.367.061,3.062-6.186h2.123l1-2-6.429-.061c-.244.122-.244.244-.378.5a1.892,1.892,0,0,1-.244.5A3.036,3.036,0,0,0,56.465,214.842Zm-2.818,3.989c-.817.183-2.062.622-2.806.061-.622-.561-.183-1.745.183-2.367a3.3,3.3,0,0,1,4.429-1.5c.183-.317,1-1.562,1.122-1.879-1.5-1.183-6.246-.439-7.991,3.623-.744,1.684-.244,3.5,1.183,4.124a4.252,4.252,0,0,0,2.806.061c.122-.061.5-.122.561-.183C53.464,220.589,53.586,219.149,53.647,218.832Zm-8.991-1.623A7.446,7.446,0,0,1,45.6,215.9l.317-.378a.06.06,0,0,1,.061-.061c0-.061,0-.061.061-.061l-.439,1.806Zm-5.368,3.807h2.5c.244-.439,1.305-1.562,1.5-2h1.879l-.439,2h2.44l1.5-8.247H46.425c-.5,0-.439.122-.683.439C44,215.269,42,217.77,40.251,219.759A5.666,5.666,0,0,0,39.288,221.016Zm-6.747-6.234,2.062.061-3.062,6.186h2.306c.439-.561,2.867-6.125,3.184-6.186h2.062l1-2c-1.122-.122-5.124,0-6.551-.061Zm-15.3,6.173,2.184.061,2.184-4.5.183,4.5h2.123a11.764,11.764,0,0,0,1.061-2c.317-.683.683-1.305,1.061-2.062.317-.683.622-1.379,1-2.062a14.52,14.52,0,0,0,1-2.062l-2.123-.061-2.062,4.124-.122-4.124h-2.44Zm-.561-4.99a6,6,0,0,1-1.5,2.623c-.817.817-2.623,1.062-2.245-.683C13.619,214.586,17.3,213.464,16.681,215.965ZM16,212.72a6.646,6.646,0,0,0-4.807,3.806c-1.183,2.306-.939,5.063,2.5,4.563,3.745-.5,6.051-5.124,5.246-7.113C18.56,212.964,17.437,212.524,16,212.72Z" transform="translate(-4.075 -205.46)"/>
  </g>
</svg>
