<svg xmlns="http://www.w3.org/2000/svg" width="44.536" height="17.404" viewBox="0 0 44.536 17.404">
  <g id="logo-contact" transform="translate(0 0)">
    <path id="Path_432" data-name="Path 432" d="M76.251,169.727a14.968,14.968,0,0,0,2.185-3.39H78.11l-15.029-.045h-.462a.839.839,0,0,0-.508.091l-2.6,3.3c-.091.045-.091.091-.045.091h14.8C74.584,169.772,76.115,169.727,76.251,169.727ZM59.736,158.36H65.3c-.136.417-3.39,5.892-3.762,6.5-.326.508-3.617,6.128-3.762,6.445l10.3-12.754a12.248,12.248,0,0,0,1.949-2.647c.236-.834-.607-.925-1.4-.925l-7.1.045ZM51.8,169.727H58.44c.136-.372,1.759-2.973,1.858-3.39H55.285c0-.236,1.342-2.647,1.577-3.109.553-1.024,1.07-2.04,1.623-3.109.553-1.024,1.07-2.04,1.623-3.064.281-.508.553-1.024.834-1.532a17.571,17.571,0,0,0,.789-1.623c-.181.181-1.3,1.668-1.532,1.994-1.994,2.692-4.133,5.339-6.073,8.022l-3.109,4.034C50.318,168.893,50.091,169.727,51.8,169.727Zm6.218-11.412a15.789,15.789,0,0,0,1.251-1.623c.417-.607.925-1.115,1.3-1.713-5.566,0-11.177.045-16.751,0H43.4c-.743,0-2.547,3.154-2.6,3.39l.653.045c5.475-.045,10.95-.045,16.425-.045C58.023,158.314,57.932,158.405,58.023,158.314Z" transform="translate(-37.471 -153.9)" fill="#3c3c3c"/>
    <path id="Path_433" data-name="Path 433" d="M8.111,217.191c-2.275.789-2.783-.281-1.949-1.668a2.829,2.829,0,0,1,1.251-1.16,2.369,2.369,0,0,1,2.085.045c.136-.462.653-.97.789-1.4-1.251-.97-4.777-.136-5.937,2.692-.879,1.994.417,3.807,3.018,3.109.508-.136.462-.091.553-.607A7.7,7.7,0,0,0,8.111,217.191ZM43,214.272h1.532l-2.275,4.55,1.759.045,2.275-4.6h1.577l.743-1.487-4.777-.045c-.181.091-.181.181-.281.372a1.4,1.4,0,0,1-.181.372A2.256,2.256,0,0,0,43,214.272Zm-2.094,2.964c-.607.136-1.532.462-2.085.045-.462-.417-.136-1.3.136-1.759a2.449,2.449,0,0,1,3.29-1.115c.136-.236.743-1.16.834-1.4-1.115-.879-4.641-.326-5.937,2.692a2.239,2.239,0,0,0,.879,3.064,3.159,3.159,0,0,0,2.085.045c.091-.045.372-.091.417-.136C40.771,218.542,40.861,217.472,40.907,217.237Zm-6.681-1.206a5.532,5.532,0,0,1,.7-.97l.236-.281a.044.044,0,0,1,.045-.045c0-.045,0-.045.045-.045l-.326,1.342Zm-3.988,2.828H32.1c.181-.326.97-1.16,1.115-1.487h1.4l-.326,1.487h1.813l1.115-6.128H35.54c-.372,0-.326.091-.508.326-1.3,1.532-2.783,3.39-4.079,4.868A4.21,4.21,0,0,0,30.238,218.859Zm-5.013-4.632,1.532.045-2.275,4.6h1.713c.326-.417,2.13-4.55,2.366-4.6h1.532l.743-1.487c-.834-.091-3.807,0-4.868-.045Zm-11.367,4.587,1.623.045,1.623-3.345.136,3.345h1.577a8.741,8.741,0,0,0,.789-1.487c.236-.508.508-.97.789-1.532.236-.508.462-1.024.743-1.532a10.785,10.785,0,0,0,.743-1.532l-1.577-.045L18.771,215.8l-.091-3.064H16.868Zm-.417-3.707a4.458,4.458,0,0,1-1.115,1.949c-.607.607-1.949.789-1.668-.508C11.166,214.082,13.9,213.248,13.441,215.106Zm-.508-2.411a4.938,4.938,0,0,0-3.571,2.828c-.879,1.713-.7,3.762,1.858,3.39,2.783-.372,4.5-3.807,3.9-5.285C14.837,212.877,14,212.55,12.934,212.7Z" transform="translate(-4.075 -207.302)" fill="#3c3c3c"/>
  </g>
</svg>
