<svg xmlns="http://www.w3.org/2000/svg" width="42.337" height="25.403" viewBox="0 0 42.337 25.403">
  <g id="mastercard-2" transform="translate(0 0)">
    <path id="Path_434" data-name="Path 434" d="M21.169,122.91A12.7,12.7,0,0,0,12.7,100.8a12.668,12.668,0,1,0,0,25.335,12.3,12.3,0,0,0,8.467-3.226Z" transform="translate(0 -100.8)" fill="#07a9e2"/>
    <path id="Path_435" data-name="Path 435" d="M0,113.5a12.677,12.677,0,0,0,12.7,12.634,12.234,12.234,0,0,0,8.467-3.293h0A12.668,12.668,0,0,0,12.7,100.8" transform="translate(0 -100.8)" fill="#009ddd"/>
    <path id="Path_436" data-name="Path 436" d="M81.991,104.093a12.677,12.677,0,0,0-8.467-3.293h-.6a15.615,15.615,0,0,0-.067,25.335h.6a12.234,12.234,0,0,0,8.467-3.293,12.7,12.7,0,0,0,.067-18.75Z" transform="translate(-60.822 -100.8)" fill="#0284cc"/>
    <path id="Path_437" data-name="Path 437" d="M218.032,100.8a12.524,12.524,0,0,0-8.535,3.293,12.075,12.075,0,0,0-1.277,1.344h2.554a9.6,9.6,0,0,1,.941,1.344h-4.5a13.331,13.331,0,0,0-.739,1.344h5.981a11.205,11.205,0,0,1,.538,1.344H206c-.134.47-.269.874-.4,1.344h7.8a11.773,11.773,0,0,1,.269,2.688,11.548,11.548,0,0,1-.672,4.032H206a11.2,11.2,0,0,0,.538,1.344h5.981a8.61,8.61,0,0,1-.739,1.344h-4.5a9.6,9.6,0,0,0,.941,1.344h2.554a12.076,12.076,0,0,1-1.277,1.344,12.849,12.849,0,0,0,8.535,3.293,12.7,12.7,0,0,0,0-25.4Z" transform="translate(-188.329 -100.8)" fill="#ff2957"/>
    <path id="Path_438" data-name="Path 438" d="M218.032,100.8h0a12.524,12.524,0,0,0-8.535,3.293,12.075,12.075,0,0,0-1.277,1.344h2.554a9.6,9.6,0,0,1,.941,1.344h-4.5a13.331,13.331,0,0,0-.739,1.344h5.981a11.205,11.205,0,0,1,.538,1.344H206c-.134.47-.269.874-.4,1.344h7.8a11.773,11.773,0,0,1,.269,2.688,11.548,11.548,0,0,1-.672,4.032H206a11.2,11.2,0,0,0,.538,1.344h5.981a8.61,8.61,0,0,1-.739,1.344h-4.5a9.6,9.6,0,0,0,.941,1.344h2.554a12.076,12.076,0,0,1-1.277,1.344,12.849,12.849,0,0,0,8.535,3.293,12.619,12.619,0,0,0,12.634-12.634" transform="translate(-188.329 -100.8)" fill="#ed1c2e"/>
    <path id="Path_439" data-name="Path 439" d="M252,158.817A12.706,12.706,0,0,0,252,140v18.817Z" transform="translate(-230.831 -136.707)" fill="#0466b5"/>
    <path id="Path_440" data-name="Path 440" d="M452,280.4a.4.4,0,1,1,.4.4.434.434,0,0,1-.4-.4Zm.4.336c.2,0,.269-.134.269-.336a.246.246,0,0,0-.269-.269.307.307,0,0,0-.336.269.432.432,0,0,0,.336.336Zm0-.2h-.067V280.2h.2l.067.067c0,.067,0,.067-.067.067l.067.134h-.067l-.067-.134H452.4v.2Zm0-.2h.067v-.067H452.4v.067Z" transform="translate(-414.031 -264.947)" fill="#fff"/>
    <path id="Path_441" data-name="Path 441" d="M209.5,105.453a12.071,12.071,0,0,0-1.277,1.344h2.554a9.6,9.6,0,0,1,.941,1.344h-4.5a13.331,13.331,0,0,0-.739,1.344h5.981a11.206,11.206,0,0,1,.538,1.344H206c-.134.47-.269.874-.4,1.344h7.8a11.773,11.773,0,0,1,.269,2.688,11.548,11.548,0,0,1-.672,4.032H206a11.2,11.2,0,0,0,.538,1.344h5.981a8.609,8.609,0,0,1-.739,1.344h-4.5a9.6,9.6,0,0,0,.941,1.344h2.554a12.079,12.079,0,0,1-1.277,1.344,12.849,12.849,0,0,0,8.535,3.293h.6a15.6,15.6,0,0,0,0-25.268h-.6A12.105,12.105,0,0,0,209.5,105.453Z" transform="translate(-188.329 -102.16)" fill="#d1094b"/>
    <path id="Path_442" data-name="Path 442" d="M57.255,219.251H55.642l.941-4.906-2.15,4.906H53.021l-.269-4.906-.941,4.906H50.4l1.21-6.451H54.1l.134,4.032,1.747-4.032h2.554Z" transform="translate(-46.166 -203.392)" fill="#fff"/>
    <g id="Group_226" data-name="Group 226" transform="translate(9.476 9.476)">
      <path id="Path_443" data-name="Path 443" d="M112.867,217.162l.941-2.083-.739,3.9a6.291,6.291,0,0,0,.269,1.075h1.075l1.21-6.451H113.27a12.983,12.983,0,0,0-.47,3.293C112.867,216.96,112.867,217.027,112.867,217.162Z" transform="translate(-112.8 -213.6)" fill="#dce5e5"/>
      <path id="Path_444" data-name="Path 444" d="M315.952,219.917a3.727,3.727,0,0,1-1.142.2c-.806,0-1.21-.4-1.21-1.142a1.312,1.312,0,0,1,.067-.47l.067-.538.067-.4.739-3.965h1.546l-.2,1.21h.806l-.2,1.21h-.806l-.4,2.15a.676.676,0,0,1-.067.2c0,.269.2.4.538.4.2,0,.336,0,.4-.067l-.2,1.21Z" transform="translate(-296.732 -213.6)" fill="#dce5e5"/>
      <path id="Path_445" data-name="Path 445" d="M352.1,226.534c-.134-.067-.134-.067-.2-.067s-.134,0-.134-.067h-.2c-.538,0-.874.2-1.344.874l.134-.806h-1.411L348,231.709h1.613c.538-3.226.806-3.763,1.546-3.763h.2l.2.067.538-1.478Z" transform="translate(-328.243 -225.325)" fill="#dce5e5"/>
      <path id="Path_446" data-name="Path 446" d="M260.6,228.147q0,1.008,1.21,1.411c.672.269.739.336.739.6,0,.336-.269.47-.941.47a5.115,5.115,0,0,1-1.411-.2l-.2,1.21h.067l.269.067h.4a4.819,4.819,0,0,0,.874.067c1.68,0,2.487-.538,2.487-1.747,0-.739-.336-1.142-1.142-1.478-.672-.269-.739-.336-.739-.538q0-.4.806-.4a7.326,7.326,0,0,1,1.142.067l.2-1.21a9.925,9.925,0,0,0-1.411-.067c-1.747,0-2.352.806-2.352,1.747Z" transform="translate(-247.635 -225.325)" fill="#dce5e5"/>
      <path id="Path_447" data-name="Path 447" d="M145.168,230.976h-1.277v-.538a2.236,2.236,0,0,1-1.68.6,1.34,1.34,0,0,1-1.411-1.411c0-1.277,1.008-2.016,2.755-2.016h.672a.9.9,0,0,0,.067-.336c0-.336-.269-.47-1.008-.47a6.767,6.767,0,0,0-1.277.134l-.2.067h-.134l.2-1.142a7.016,7.016,0,0,1,1.882-.269c1.344,0,2.083.538,2.083,1.546a4.037,4.037,0,0,1-.134,1.075l-.336,1.882-.067.336-.067.269v.2l-.067.067Zm-1.142-2.352h-.336c-.874,0-1.344.269-1.344.806a.5.5,0,0,0,.538.538,1.193,1.193,0,0,0,1.142-1.344Z" transform="translate(-138.448 -224.592)" fill="#dce5e5"/>
      <path id="Path_448" data-name="Path 448" d="M207.5,230.842a6.627,6.627,0,0,1-1.613.2c-1.747,0-2.688-.806-2.688-2.352a2.818,2.818,0,0,1,2.755-3.091,1.859,1.859,0,0,1,2.083,1.882,4.963,4.963,0,0,1-.2,1.277h-3.159v.2c0,.6.47.941,1.344.941a3.319,3.319,0,0,0,1.613-.336l-.134,1.277Zm-.806-3.091v-.269a.655.655,0,0,0-.739-.672,1.064,1.064,0,0,0-1.008.941Z" transform="translate(-195.606 -224.592)" fill="#dce5e5"/>
    </g>
    <g id="Group_227" data-name="Group 227" transform="translate(32.66 10.484)">
      <path id="Path_449" data-name="Path 449" d="M394.378,228.624a2.794,2.794,0,0,1-3.091,2.487,2.242,2.242,0,0,1-2.486-2.419,2.928,2.928,0,0,1,3.091-3.091,2.294,2.294,0,0,1,2.486,2.352v.672Zm-1.68-.672c0-.538-.2-1.008-.874-1.008-.806,0-1.277.941-1.277,1.814,0,.672.336,1.142.874,1.142a1.558,1.558,0,0,0,1.21-1.277,2.521,2.521,0,0,0,.067-.672Z" transform="translate(-388.8 -225.6)" fill="#fff"/>
      <path id="Path_450" data-name="Path 450" d="M389.05,252.013a10.989,10.989,0,0,0,.134-1.478V250.4a5.221,5.221,0,0,0-.134,1.075A.736.736,0,0,0,389.05,252.013Z" transform="translate(-388.983 -248.317)" fill="#fff"/>
    </g>
  </g>
</svg>
