
<svg xmlns="http://www.w3.org/2000/svg" width="35.325" height="27.411" viewBox="0 0 35.325 27.411">
    <g id="mastercard-seeklogo.com" transform="translate(0 0)">
        <path id="Path_809" data-name="Path 809" d="M17.591,172.658v-1.819a1.067,1.067,0,0,0-1.152-1.152,1.2,1.2,0,0,0-1.031.515,1.061,1.061,0,0,0-.97-.515.979.979,0,0,0-.849.425v-.364h-.637v2.911h.637v-1.607c0-.515.273-.758.7-.758s.637.273.637.758v1.607h.637v-1.607a.671.671,0,0,1,.7-.758c.425,0,.637.273.637.758v1.607Zm9.43-2.911H25.99v-.879h-.637v.879h-.576v.576h.576v1.334c0,.667.273,1.061,1,1.061a1.7,1.7,0,0,0,.788-.212l-.182-.546a1,1,0,0,1-.546.152c-.3,0-.425-.182-.425-.485v-1.3h1.031v-.576Zm5.4-.061a.855.855,0,0,0-.758.425v-.364h-.637v2.911h.637v-1.637c0-.485.212-.758.606-.758a1.774,1.774,0,0,1,.394.061l.182-.606a2,2,0,0,0-.425-.03Zm-8.157.3a2.081,2.081,0,0,0-1.183-.3c-.728,0-1.213.364-1.213.94,0,.485.364.758,1,.849l.3.03c.334.061.515.152.515.3,0,.212-.243.364-.667.364a1.674,1.674,0,0,1-.97-.3l-.3.485a2.144,2.144,0,0,0,1.243.364c.849,0,1.334-.394,1.334-.94,0-.515-.394-.788-1-.879l-.3-.03c-.273-.03-.485-.091-.485-.273,0-.212.212-.334.546-.334a2.186,2.186,0,0,1,.91.243l.273-.515Zm16.92-.3a.855.855,0,0,0-.758.425v-.364h-.637v2.911h.637v-1.637c0-.485.212-.758.606-.758a1.774,1.774,0,0,1,.394.061l.182-.606a2,2,0,0,0-.425-.03ZM33.055,171.2a1.457,1.457,0,0,0,1.546,1.516,1.509,1.509,0,0,0,1.031-.334l-.3-.515a1.225,1.225,0,0,1-.758.273.861.861,0,0,1-.879-.94.894.894,0,0,1,.879-.94,1.225,1.225,0,0,1,.758.273l.3-.515a1.509,1.509,0,0,0-1.031-.334,1.457,1.457,0,0,0-1.546,1.516Zm5.882,0v-1.455H38.3v.364a1.1,1.1,0,0,0-.91-.425,1.517,1.517,0,0,0,0,3.032,1.021,1.021,0,0,0,.91-.425v.364h.637Zm-2.335,0a.881.881,0,1,1,1.759,0,.881.881,0,1,1-1.759,0Zm-7.611-1.516a1.517,1.517,0,0,0,.03,3.032,1.854,1.854,0,0,0,1.183-.394l-.3-.455a1.449,1.449,0,0,1-.849.3.818.818,0,0,1-.879-.7h2.153v-.243a1.34,1.34,0,0,0-1.334-1.546Zm0,.546a.709.709,0,0,1,.728.7H28.2a.768.768,0,0,1,.788-.7Zm15.8.97V168.6h-.637v1.516a1.1,1.1,0,0,0-.91-.425,1.517,1.517,0,0,0,0,3.032,1.021,1.021,0,0,0,.91-.425v.364h.637Zm-2.335,0a.881.881,0,1,1,1.759,0,.881.881,0,1,1-1.759,0Zm-21.286,0v-1.455h-.637v.364a1.1,1.1,0,0,0-.91-.425,1.517,1.517,0,0,0,0,3.032,1.021,1.021,0,0,0,.91-.425v.364h.637Zm-2.365,0a.881.881,0,1,1,1.759,0,.881.881,0,1,1-1.759,0Z" transform="translate(-11.163 -145.308)" fill="#3c3c3c"/>
        <rect id="Rectangle_201" data-name="Rectangle 201" width="9.551" height="17.162" transform="translate(12.887 2.335)" fill="#3c3c3c"/>
        <path id="Path_810" data-name="Path 810" d="M13.493,10.916a10.945,10.945,0,0,1,4.154-8.581,10.912,10.912,0,1,0-6.731,19.5A10.849,10.849,0,0,0,17.647,19.5,10.9,10.9,0,0,1,13.493,10.916Z" transform="translate(0 0)" fill="#3c3c3c"/>
        <path id="Path_811" data-name="Path 811" d="M145.63,10.916A10.9,10.9,0,0,1,127.983,19.5a10.94,10.94,0,0,0,0-17.162,10.9,10.9,0,0,1,17.647,8.581Z" transform="translate(-110.305 0)" fill="#3c3c3c"/>
    </g>
</svg>
