<svg xmlns="http://www.w3.org/2000/svg" width="45.685" height="27.411" viewBox="0 0 45.685 27.411">
  <g id="mastercard-2" transform="translate(0 0)">
    <path id="Path_434" data-name="Path 434" d="M22.843,124.658A13.706,13.706,0,0,0,13.706,100.8a13.669,13.669,0,1,0,0,27.339,13.272,13.272,0,0,0,9.137-3.481Z" transform="translate(0 -100.8)" fill="#3c3c3c"/>
    <path id="Path_435" data-name="Path 435" d="M0,114.506a13.679,13.679,0,0,0,13.706,13.633,13.2,13.2,0,0,0,9.137-3.553h0A13.669,13.669,0,0,0,13.706,100.8" transform="translate(0 -100.8)" fill="#3c3c3c"/>
    <path id="Path_436" data-name="Path 436" d="M83.224,104.353a13.679,13.679,0,0,0-9.137-3.553h-.653a16.85,16.85,0,0,0-.073,27.339h.653a13.2,13.2,0,0,0,9.137-3.553,13.7,13.7,0,0,0,.073-20.232Z" transform="translate(-60.381 -100.8)" fill="#3c3c3c"/>
    <path id="Path_437" data-name="Path 437" d="M219.016,100.8a13.514,13.514,0,0,0-9.21,3.553,13.03,13.03,0,0,0-1.378,1.45h2.756a10.36,10.36,0,0,1,1.015,1.45H207.34a14.379,14.379,0,0,0-.8,1.45H213a12.093,12.093,0,0,1,.58,1.45h-7.542c-.145.508-.29.943-.435,1.45h8.412a12.7,12.7,0,0,1,.29,2.9,12.461,12.461,0,0,1-.725,4.351h-7.542a12.093,12.093,0,0,0,.58,1.45h6.454a9.292,9.292,0,0,1-.8,1.45h-4.859a10.365,10.365,0,0,0,1.015,1.45h2.756a13.028,13.028,0,0,1-1.378,1.45,13.865,13.865,0,0,0,9.21,3.553,13.706,13.706,0,0,0,0-27.411Z" transform="translate(-186.963 -100.8)" fill="#3c3c3c"/>
    <path id="Path_438" data-name="Path 438" d="M219.016,100.8h0a13.514,13.514,0,0,0-9.21,3.553,13.03,13.03,0,0,0-1.378,1.45h2.756a10.36,10.36,0,0,1,1.015,1.45H207.34a14.379,14.379,0,0,0-.8,1.45H213a12.093,12.093,0,0,1,.58,1.45h-7.542c-.145.508-.29.943-.435,1.45h8.412a12.7,12.7,0,0,1,.29,2.9,12.461,12.461,0,0,1-.725,4.351h-7.542a12.093,12.093,0,0,0,.58,1.45h6.454a9.292,9.292,0,0,1-.8,1.45h-4.859a10.365,10.365,0,0,0,1.015,1.45h2.756a13.028,13.028,0,0,1-1.378,1.45,13.865,13.865,0,0,0,9.21,3.553,13.617,13.617,0,0,0,13.633-13.633" transform="translate(-186.963 -100.8)" fill="#3c3c3c"/>
    <path id="Path_439" data-name="Path 439" d="M252,160.3a13.71,13.71,0,0,0,0-20.3v20.3Z" transform="translate(-227.27 -136.447)" fill="#3c3c3c"/>
    <path id="Path_440" data-name="Path 440" d="M452,280.435a.435.435,0,1,1,.435.435.468.468,0,0,1-.435-.435Zm.435.363c.218,0,.29-.145.29-.363a.266.266,0,0,0-.29-.29.332.332,0,0,0-.363.29.466.466,0,0,0,.363.363Zm0-.218h-.072v-.363h.218l.073.073c0,.073,0,.073-.073.073l.073.145h-.073l-.073-.145h-.073v.218Zm0-.218h.073v-.073h-.073v.073Z" transform="translate(-411.028 -263.756)" fill="#3c3c3c"/>
    <path id="Path_441" data-name="Path 441" d="M209.806,105.7a13.03,13.03,0,0,0-1.378,1.45h2.756a10.362,10.362,0,0,1,1.015,1.45H207.34a14.383,14.383,0,0,0-.8,1.45H213a12.1,12.1,0,0,1,.58,1.45h-7.542c-.145.508-.29.943-.435,1.45h8.412a12.7,12.7,0,0,1,.29,2.9,12.461,12.461,0,0,1-.725,4.351h-7.542a12.093,12.093,0,0,0,.58,1.45h6.454a9.291,9.291,0,0,1-.8,1.45h-4.859a10.365,10.365,0,0,0,1.015,1.45h2.756a13.028,13.028,0,0,1-1.378,1.45,13.865,13.865,0,0,0,9.21,3.553h.653a16.83,16.83,0,0,0,0-27.266h-.653A13.062,13.062,0,0,0,209.806,105.7Z" transform="translate(-186.963 -102.15)" fill="#3c3c3c"/>
    <path id="Path_442" data-name="Path 442" d="M57.8,219.762h-1.74l1.015-5.294-2.321,5.294H53.228l-.29-5.294-1.015,5.294H50.4l1.305-6.962h2.683l.145,4.351,1.885-4.351h2.756Z" transform="translate(-45.831 -202.648)" fill="#fcfcfc"/>
    <g id="Group_226" data-name="Group 226" transform="translate(12.763 10.225)">
      <path id="Path_444" data-name="Path 444" d="M316.138,220.416a4.023,4.023,0,0,1-1.233.218c-.87,0-1.305-.435-1.305-1.233a1.416,1.416,0,0,1,.073-.508l.073-.58.072-.435.8-4.278h1.668l-.218,1.305h.87l-.218,1.305h-.87l-.435,2.321a.73.73,0,0,1-.073.218c0,.29.218.435.58.435.218,0,.363,0,.435-.073l-.217,1.305Z" transform="translate(-297.936 -213.6)" fill="#fcfcfc"/>
      <path id="Path_445" data-name="Path 445" d="M352.424,226.545c-.145-.073-.145-.073-.218-.073s-.145,0-.145-.072h-.218c-.58,0-.943.218-1.45.943l.145-.87h-1.523L348,232.129h1.74c.58-3.481.87-4.061,1.668-4.061h.218l.218.073.58-1.6Z" transform="translate(-329.218 -225.24)" fill="#fcfcfc"/>
      <path id="Path_446" data-name="Path 446" d="M260.653,228.285q0,1.088,1.305,1.523c.725.29.8.363.8.653,0,.363-.29.508-1.015.508a5.521,5.521,0,0,1-1.523-.218L260,232.056h.073l.29.073h.435a5.2,5.2,0,0,0,.943.073c1.813,0,2.683-.58,2.683-1.885,0-.8-.363-1.233-1.233-1.6-.725-.29-.8-.363-.8-.58q0-.435.87-.435a7.9,7.9,0,0,1,1.233.073l.218-1.305a10.708,10.708,0,0,0-1.523-.073c-1.885,0-2.538.87-2.538,1.885Z" transform="translate(-249.195 -225.24)" fill="#fcfcfc"/>
      <path id="Path_447" data-name="Path 447" d="M145.514,231.4h-1.378v-.58a2.413,2.413,0,0,1-1.813.653,1.446,1.446,0,0,1-1.523-1.523c0-1.378,1.088-2.175,2.973-2.175h.725a.97.97,0,0,0,.073-.363c0-.363-.29-.508-1.088-.508a7.3,7.3,0,0,0-1.378.145l-.218.072h-.145l.218-1.233a7.571,7.571,0,0,1,2.03-.29c1.45,0,2.248.58,2.248,1.668a4.357,4.357,0,0,1-.145,1.16l-.363,2.03-.073.363-.073.29v.218l-.073.073Zm-1.233-2.538h-.363c-.943,0-1.45.29-1.45.87a.534.534,0,0,0,.58.58,1.287,1.287,0,0,0,1.233-1.45Z" transform="translate(-140.8 -224.512)" fill="#fcfcfc"/>
      <path id="Path_448" data-name="Path 448" d="M207.841,231.256a7.149,7.149,0,0,1-1.74.218c-1.885,0-2.9-.87-2.9-2.538a3.041,3.041,0,0,1,2.973-3.336,2.006,2.006,0,0,1,2.248,2.03,5.355,5.355,0,0,1-.218,1.378H204.8v.218c0,.653.508,1.015,1.45,1.015a3.582,3.582,0,0,0,1.74-.363l-.145,1.378Zm-.87-3.336v-.29a.707.707,0,0,0-.8-.725,1.148,1.148,0,0,0-1.088,1.015Z" transform="translate(-197.544 -224.512)" fill="#fcfcfc"/>
    </g>
    <g id="Group_227" data-name="Group 227" transform="translate(35.243 11.313)">
      <path id="Path_449" data-name="Path 449" d="M394.819,228.863a3.014,3.014,0,0,1-3.336,2.683,2.42,2.42,0,0,1-2.683-2.611,3.159,3.159,0,0,1,3.336-3.336,2.476,2.476,0,0,1,2.683,2.538v.725Zm-1.813-.725c0-.58-.218-1.088-.943-1.088-.87,0-1.378,1.015-1.378,1.958,0,.725.363,1.233.943,1.233a1.681,1.681,0,0,0,1.305-1.378,2.72,2.72,0,0,0,.073-.725Z" transform="translate(-388.8 -225.6)" fill="#fcfcfc"/>
      <path id="Path_450" data-name="Path 450" d="M389.054,252.14a11.864,11.864,0,0,0,.145-1.6V250.4a5.637,5.637,0,0,0-.145,1.16A.794.794,0,0,0,389.054,252.14Z" transform="translate(-388.982 -248.152)" fill="#fcfcfc"/>
    </g>
  </g>
</svg>
