<svg xmlns="http://www.w3.org/2000/svg" width="70.317" height="17.97" viewBox="0 0 70.317 17.97">
  <g id="paypal" transform="translate(0 0)">
    <path id="Path_761" data-name="Path 761" d="M353.116,221.2h-3.795a.742.742,0,0,0-.558.446l-1.563,9.822a.3.3,0,0,0,.335.335h2.009a.3.3,0,0,0,.335-.335l.446-2.79a.511.511,0,0,1,.558-.446h1.228q3.851,0,4.353-3.683a2.925,2.925,0,0,0-.446-2.455,4.5,4.5,0,0,0-2.9-.893m.446,3.683c-.223,1.339-1.228,1.339-2.232,1.339h-.67l.447-2.567c0-.112.112-.223.335-.223h.223c.67,0,1.339,0,1.674.446.223.112.223.446.223,1" transform="translate(-298.76 -216.512)" fill="#3c3c3c"/>
    <g id="Group_285" data-name="Group 285" transform="translate(21.095 4.688)">
      <path id="Path_762" data-name="Path 762" d="M157.116,221.2h-3.795a.742.742,0,0,0-.558.446l-1.563,9.822a.3.3,0,0,0,.335.335h1.786a.742.742,0,0,0,.558-.446l.446-2.679a.511.511,0,0,1,.558-.446h1.228q3.851,0,4.353-3.683a2.926,2.926,0,0,0-.446-2.455,4.29,4.29,0,0,0-2.9-.893m.446,3.683c-.223,1.339-1.228,1.339-2.232,1.339h-.558l.446-2.567c0-.112.112-.223.335-.223h.223c.67,0,1.339,0,1.674.446a1.2,1.2,0,0,1,.112,1" transform="translate(-151.2 -221.2)" fill="#3c3c3c"/>
      <path id="Path_763" data-name="Path 763" d="M222.563,245.423h-1.786c-.112,0-.335.112-.335.223l-.112.558-.112-.223a2.625,2.625,0,0,0-2.121-.781,4.289,4.289,0,0,0-4.13,3.683,3.327,3.327,0,0,0,.67,2.79,2.813,2.813,0,0,0,2.344.893,3.568,3.568,0,0,0,2.567-1l-.112.558a.3.3,0,0,0,.335.335h1.674a.742.742,0,0,0,.558-.446l1-6.25c-.112-.112-.335-.335-.446-.335M220,248.995a2.159,2.159,0,0,1-2.121,1.786,1.785,1.785,0,0,1-1.228-.446,2.38,2.38,0,0,1-.335-1.339,1.991,1.991,0,0,1,3.237-1.339,1.948,1.948,0,0,1,.446,1.339" transform="translate(-205.151 -241.852)" fill="#3c3c3c"/>
    </g>
    <path id="Path_764" data-name="Path 764" d="M417.763,245.423h-1.786c-.112,0-.335.112-.335.223l-.112.558-.112-.223a2.625,2.625,0,0,0-2.121-.781,4.289,4.289,0,0,0-4.13,3.683,3.327,3.327,0,0,0,.67,2.79,2.813,2.813,0,0,0,2.344.893,3.568,3.568,0,0,0,2.567-1l-.112.558a.3.3,0,0,0,.335.335h1.674a.742.742,0,0,0,.558-.446l1-6.25c-.112-.112-.223-.335-.446-.335m-2.567,3.572a2.159,2.159,0,0,1-2.121,1.786,1.785,1.785,0,0,1-1.228-.446,2.38,2.38,0,0,1-.335-1.339,1.991,1.991,0,0,1,3.237-1.339,1.281,1.281,0,0,1,.446,1.339" transform="translate(-352.022 -237.164)" fill="#3c3c3c"/>
    <path id="Path_765" data-name="Path 765" d="M292.594,246.8h-1.9a.58.58,0,0,0-.446.223l-2.455,3.795-1.116-3.572a.516.516,0,0,0-.558-.335h-1.786c-.223,0-.335.223-.335.446l2.009,5.916-1.9,2.679c-.112.223,0,.558.223.558h1.786a.58.58,0,0,0,.447-.223l6.139-8.818c.335-.335.112-.67-.112-.67" transform="translate(-244.377 -238.541)" fill="#3c3c3c"/>
    <path id="Path_766" data-name="Path 766" d="M476.763,221.953,475.2,232a.3.3,0,0,0,.335.335H477.1a.742.742,0,0,0,.558-.446l1.563-9.822a.3.3,0,0,0-.335-.335H477.1c-.112-.112-.223,0-.335.223" transform="translate(-408.901 -216.931)" fill="#3c3c3c"/>
    <path id="Path_767" data-name="Path 767" d="M12.836,188.939c-.781-.893-2.232-1.339-4.241-1.339H3.014a.957.957,0,0,0-.781.67L0,202.891a.511.511,0,0,0,.446.558h3.46L4.8,197.98v.223a.957.957,0,0,1,.781-.67H7.255c3.237,0,5.692-1.339,6.474-5.023v-.335h0a3.9,3.9,0,0,0-.893-3.237" transform="translate(0 -187.6)" fill="#3c3c3c"/>
    <path id="Path_768" data-name="Path 768" d="M35.645,220.4h0v.335c-.781,3.795-3.237,5.023-6.474,5.023H27.5a.957.957,0,0,0-.781.67L25.6,233.236a.409.409,0,0,0,.446.446h2.9a.625.625,0,0,0,.67-.558v-.112l.558-3.46v-.223a.625.625,0,0,1,.67-.558h.446c2.79,0,5.023-1.116,5.581-4.465a4.1,4.1,0,0,0-.558-3.348,1.143,1.143,0,0,0-.67-.558" transform="translate(-22.028 -215.824)" fill="#3c3c3c"/>
    <path id="Path_769" data-name="Path 769" d="M42.436,215.935c-.112,0-.223-.112-.335-.112a.41.41,0,0,1-.335-.112,5.9,5.9,0,0,0-1.451-.112H35.963a.41.41,0,0,0-.335.112.614.614,0,0,0-.335.558l-.893,5.8v.223a.957.957,0,0,1,.781-.67h1.674c3.237,0,5.692-1.339,6.474-5.023a.41.41,0,0,1,.112-.335c-.223-.112-.335-.223-.558-.223-.335-.112-.335-.112-.446-.112" transform="translate(-29.601 -211.694)" fill="#3c3c3c"/>
  </g>
</svg>
