<svg xmlns="http://www.w3.org/2000/svg" width="93.008" height="23.769" viewBox="0 0 93.008 23.769">
  <g id="paypal" transform="translate(0 0)">
    <path id="Path_574" data-name="Path 574" d="M355.024,221.2h-5.019a.981.981,0,0,0-.738.591L347.2,234.782a.391.391,0,0,0,.443.443H350.3a.391.391,0,0,0,.443-.443l.591-3.691a.676.676,0,0,1,.738-.591H353.7q5.093,0,5.758-4.872a3.869,3.869,0,0,0-.591-3.248,5.954,5.954,0,0,0-3.838-1.181m.591,4.872c-.3,1.772-1.624,1.772-2.953,1.772h-.886l.591-3.4c0-.148.148-.3.443-.3h.3c.886,0,1.771,0,2.214.591.3.148.3.591.3,1.329" transform="translate(-283.128 -215)" fill="#139ad6"/>
    <g id="Group_235" data-name="Group 235" transform="translate(27.902 6.201)">
      <path id="Path_575" data-name="Path 575" d="M159.024,221.2H154a.981.981,0,0,0-.738.591L151.2,234.782a.391.391,0,0,0,.443.443H154a.981.981,0,0,0,.738-.59l.591-3.543a.675.675,0,0,1,.738-.591H157.7q5.093,0,5.758-4.872a3.87,3.87,0,0,0-.591-3.248,5.674,5.674,0,0,0-3.838-1.181m.591,4.872c-.3,1.772-1.624,1.772-2.953,1.772h-.738l.591-3.4c0-.148.148-.3.443-.3h.3c.886,0,1.772,0,2.214.591a1.581,1.581,0,0,1,.148,1.329" transform="translate(-151.2 -221.2)" fill="#263b80"/>
      <path id="Path_576" data-name="Path 576" d="M225.359,245.5H223c-.148,0-.443.148-.443.3l-.148.738-.148-.3a3.473,3.473,0,0,0-2.8-1.033,5.673,5.673,0,0,0-5.462,4.872,4.4,4.4,0,0,0,.886,3.691,3.72,3.72,0,0,0,3.1,1.181,4.719,4.719,0,0,0,3.4-1.329l-.148.738a.391.391,0,0,0,.443.443h2.215a.981.981,0,0,0,.738-.591l1.329-8.267c-.148-.148-.443-.443-.591-.443m-3.4,4.724a2.855,2.855,0,0,1-2.8,2.362,2.361,2.361,0,0,1-1.624-.591,3.148,3.148,0,0,1-.443-1.772,2.633,2.633,0,0,1,4.281-1.772,2.577,2.577,0,0,1,.591,1.772" transform="translate(-202.328 -240.771)" fill="#263b80"/>
    </g>
    <path id="Path_577" data-name="Path 577" d="M420.559,245.5H418.2c-.148,0-.443.148-.443.3l-.148.738-.148-.3a3.473,3.473,0,0,0-2.805-1.033,5.673,5.673,0,0,0-5.462,4.872,4.4,4.4,0,0,0,.886,3.691,3.72,3.72,0,0,0,3.1,1.181,4.719,4.719,0,0,0,3.4-1.329l-.148.738a.392.392,0,0,0,.443.443h2.214a.981.981,0,0,0,.738-.591l1.329-8.267c-.148-.148-.3-.443-.591-.443m-3.4,4.724a2.855,2.855,0,0,1-2.805,2.362,2.36,2.36,0,0,1-1.624-.591,3.148,3.148,0,0,1-.443-1.772,2.633,2.633,0,0,1,4.281-1.772,1.7,1.7,0,0,1,.591,1.772" transform="translate(-333.604 -234.571)" fill="#139ad6"/>
    <path id="Path_578" data-name="Path 578" d="M295.368,246.8h-2.51a.767.767,0,0,0-.591.3l-3.248,5.019-1.476-4.724a.682.682,0,0,0-.738-.443h-2.362c-.3,0-.443.3-.443.591l2.657,7.824-2.51,3.543c-.148.3,0,.738.3.738H286.8a.767.767,0,0,0,.591-.3l8.12-11.663c.443-.443.148-.886-.148-.886" transform="translate(-231.591 -235.875)" fill="#263b80"/>
    <path id="Path_579" data-name="Path 579" d="M477.267,222.039,475.2,235.326a.392.392,0,0,0,.443.443h2.067a.981.981,0,0,0,.738-.591l2.067-12.992a.391.391,0,0,0-.443-.443H477.71c-.148-.148-.3,0-.443.3" transform="translate(-387.507 -215.396)" fill="#139ad6"/>
    <path id="Path_580" data-name="Path 580" d="M16.978,189.372c-1.033-1.181-2.953-1.772-5.61-1.772H3.986a1.266,1.266,0,0,0-1.033.886L0,207.825a.675.675,0,0,0,.591.738H5.167l1.181-7.234v.3a1.267,1.267,0,0,1,1.033-.886H9.6c4.281,0,7.529-1.772,8.563-6.643v-.443h0a5.156,5.156,0,0,0-1.181-4.281" transform="translate(0 -187.6)" fill="#263b80"/>
    <path id="Path_581" data-name="Path 581" d="M38.887,220.4h0v.443c-1.033,5.019-4.281,6.643-8.563,6.643H28.11a1.267,1.267,0,0,0-1.033.886L25.6,237.378a.541.541,0,0,0,.591.591h3.838a.827.827,0,0,0,.886-.738v-.148l.738-4.577v-.3a.827.827,0,0,1,.886-.738h.591c3.691,0,6.643-1.476,7.382-5.905.3-1.772.148-3.4-.738-4.429a1.512,1.512,0,0,0-.886-.738" transform="translate(-20.876 -214.347)" fill="#139ad6"/>
    <path id="Path_582" data-name="Path 582" d="M45.029,216.043c-.148,0-.3-.148-.443-.148a.542.542,0,0,1-.443-.148,7.8,7.8,0,0,0-1.919-.148H36.467a.542.542,0,0,0-.443.148.812.812,0,0,0-.443.738L34.4,224.163v.3a1.266,1.266,0,0,1,1.033-.886h2.214c4.281,0,7.529-1.772,8.563-6.643a.542.542,0,0,1,.148-.443c-.3-.148-.443-.3-.738-.3-.443-.148-.443-.148-.591-.148" transform="translate(-28.052 -210.433)" fill="#232c65"/>
  </g>
</svg>
