<svg xmlns="http://www.w3.org/2000/svg" width="45.686" height="13.851" viewBox="0 0 45.686 13.851">
  <g id="visa" transform="translate(0 0)">
    <path id="Path_478" data-name="Path 478" d="M184.8,193.453l2.321-13.053h3.626L188.5,193.453Z" transform="translate(-168.049 -179.965)" fill="#3c3c3c"/>
    <path id="Path_479" data-name="Path 479" d="M184.8,193.453l2.973-13.053h2.973L188.5,193.453Z" transform="translate(-168.049 -179.965)" fill="#3c3c3c"/>
    <path id="Path_480" data-name="Path 480" d="M259.1,176.18a9.2,9.2,0,0,0-3.336-.58c-3.626,0-6.236,1.813-6.236,4.423,0,1.958,1.813,2.973,3.263,3.626s1.885,1.088,1.885,1.668c0,.87-1.16,1.305-2.175,1.305a7.882,7.882,0,0,1-3.481-.725l-.508-.218L248,188.653a11.758,11.758,0,0,0,4.133.725c3.843,0,6.381-1.813,6.381-4.569,0-1.523-.943-2.683-3.118-3.626-1.305-.653-2.1-1.015-2.1-1.668,0-.58.653-1.16,2.1-1.16a6.651,6.651,0,0,1,2.756.508l.363.145.58-2.828Z" transform="translate(-225.52 -175.6)" fill="#3c3c3c"/>
    <path id="Path_481" data-name="Path 481" d="M259.1,176.18a9.2,9.2,0,0,0-3.336-.58c-3.626,0-5.584,1.813-5.584,4.423a3.791,3.791,0,0,0,2.611,3.626c1.45.653,1.885,1.088,1.885,1.668,0,.87-1.16,1.305-2.175,1.305a7.882,7.882,0,0,1-3.481-.725l-.508-.218L248,188.653a11.758,11.758,0,0,0,4.133.725c3.843,0,6.381-1.813,6.381-4.569,0-1.523-.943-2.683-3.118-3.626-1.305-.653-2.1-1.015-2.1-1.668,0-.58.653-1.16,2.1-1.16a6.651,6.651,0,0,1,2.756.508l.363.145.58-2.828Z" transform="translate(-225.52 -175.6)" fill="#3c3c3c"/>
    <path id="Path_482" data-name="Path 482" d="M365.724,180.4c-.87,0-1.523.073-1.885.943l-5.439,12.11h3.916l.725-2.175h4.641l.435,2.175H371.6L368.552,180.4Zm-1.668,8.7c.218-.653,1.45-3.843,1.45-3.843s.29-.8.508-1.305l.218,1.233s.725,3.263.87,3.988h-3.046Z" transform="translate(-325.913 -179.965)" fill="#3c3c3c"/>
    <path id="Path_483" data-name="Path 483" d="M366.594,180.4c-.87,0-1.523.073-1.885.943l-6.309,12.11h3.916l.725-2.175h4.641l.435,2.175H371.6L368.552,180.4Zm-2.538,8.7c.29-.725,1.45-3.843,1.45-3.843s.29-.8.508-1.305l.218,1.233s.725,3.263.87,3.988h-3.046Z" transform="translate(-325.913 -179.965)" fill="#3c3c3c"/>
    <path id="Path_484" data-name="Path 484" d="M56.639,190.265l-.363-1.885A10.512,10.512,0,0,0,51.2,182.65l3.263,11.6h3.916L64.253,181.2H60.337Z" transform="translate(-46.559 -180.692)" fill="#3c3c3c"/>
    <path id="Path_485" data-name="Path 485" d="M56.639,190.265l-.363-1.885A10.512,10.512,0,0,0,51.2,182.65l3.263,11.6h3.916L64.253,181.2H61.062Z" transform="translate(-46.559 -180.692)" fill="#3c3c3c"/>
    <path id="Path_486" data-name="Path 486" d="M0,180.4l.653.145c4.641,1.088,7.832,3.843,9.065,7.107l-1.305-6.164c-.218-.87-.87-1.088-1.668-1.088Z" transform="translate(0 -179.965)" fill="#3c3c3c"/>
    <path id="Path_487" data-name="Path 487" d="M0,180.4H0c4.641,1.088,8.484,3.916,9.717,7.179L8.484,182.43a1.77,1.77,0,0,0-1.74-1.378Z" transform="translate(0 -179.965)" fill="#3c3c3c"/>
    <path id="Path_488" data-name="Path 488" d="M0,180.4H0c4.641,1.088,8.484,3.916,9.717,7.179l-.87-2.828a2.557,2.557,0,0,0-1.523-2.1Z" transform="translate(0 -179.965)" fill="#3c3c3c"/>
    <g id="Group_230" data-name="Group 230" transform="translate(4.714 1.885)">
      <path id="Path_489" data-name="Path 489" d="M60.992,203.652l-2.466-2.466-1.16,2.756-.29-1.813A10.512,10.512,0,0,0,52,196.4L55.263,208h3.916Z" transform="translate(-52 -196.4)" fill="#3c3c3c"/>
      <path id="Path_490" data-name="Path 490" d="M188.5,292.391,185.38,289.2l-.58,3.191Z" transform="translate(-172.762 -280.788)" fill="#3c3c3c"/>
      <path id="Path_491" data-name="Path 491" d="M254.309,274.8h0c.29.29.435.508.363.8,0,.87-1.16,1.305-2.176,1.305a7.882,7.882,0,0,1-3.481-.725l-.508-.218L248,278.933a11.758,11.758,0,0,0,4.133.725,7.18,7.18,0,0,0,5.294-1.813Z" transform="translate(-230.234 -267.693)" fill="#3c3c3c"/>
      <path id="Path_492" data-name="Path 492" d="M364,229.1h3.408l.725-2.175h4.641l.435,2.175h3.481l-1.233-5.294-4.351-4.206.218,1.16s.725,3.263.87,3.988h-3.046c.29-.725,1.45-3.843,1.45-3.843s.29-.8.508-1.305" transform="translate(-335.719 -217.497)" fill="#3c3c3c"/>
    </g>
  </g>
</svg>
