<svg xmlns="http://www.w3.org/2000/svg" width="56" height="16.978" viewBox="0 0 56 16.978">
  <g id="visa" transform="translate(0 0)">
    <path id="Path_478" data-name="Path 478" d="M184.8,196.4l2.844-16h4.444l-2.756,16Z" transform="translate(-164.267 -179.867)" fill="#3c58bf"/>
    <path id="Path_479" data-name="Path 479" d="M184.8,196.4l3.644-16h3.644l-2.756,16Z" transform="translate(-164.267 -179.867)" fill="#293688"/>
    <path id="Path_480" data-name="Path 480" d="M261.6,176.311a11.275,11.275,0,0,0-4.089-.711c-4.444,0-7.644,2.222-7.644,5.422,0,2.4,2.222,3.644,4,4.444s2.311,1.333,2.311,2.044c0,1.067-1.422,1.6-2.667,1.6a9.661,9.661,0,0,1-4.267-.889l-.622-.267L248,191.6a14.413,14.413,0,0,0,5.067.889c4.711,0,7.822-2.222,7.822-5.6,0-1.867-1.156-3.289-3.822-4.444-1.6-.8-2.578-1.244-2.578-2.044,0-.711.8-1.422,2.578-1.422a8.153,8.153,0,0,1,3.378.622l.444.178.711-3.467Z" transform="translate(-220.444 -175.6)" fill="#3c58bf"/>
    <path id="Path_481" data-name="Path 481" d="M261.6,176.311a11.275,11.275,0,0,0-4.089-.711c-4.444,0-6.844,2.222-6.844,5.422,0,2.4,1.422,3.644,3.2,4.444s2.311,1.333,2.311,2.044c0,1.067-1.422,1.6-2.667,1.6a9.661,9.661,0,0,1-4.267-.889l-.622-.267L248,191.6a14.413,14.413,0,0,0,5.067.889c4.711,0,7.822-2.222,7.822-5.6,0-1.867-1.156-3.289-3.822-4.444-1.6-.8-2.578-1.244-2.578-2.044,0-.711.8-1.422,2.578-1.422a8.153,8.153,0,0,1,3.378.622l.444.178.711-3.467Z" transform="translate(-220.444 -175.6)" fill="#293688"/>
    <path id="Path_482" data-name="Path 482" d="M367.378,180.4c-1.067,0-1.867.089-2.311,1.156L358.4,196.4h4.8l.889-2.667h5.689l.533,2.667h4.267l-3.733-16Zm-2.044,10.667c.267-.8,1.778-4.711,1.778-4.711s.356-.978.622-1.6l.267,1.511s.889,4,1.067,4.889h-3.733Z" transform="translate(-318.578 -179.867)" fill="#3c58bf"/>
    <path id="Path_483" data-name="Path 483" d="M368.444,180.4c-1.067,0-1.867.089-2.311,1.156L358.4,196.4h4.8l.889-2.667h5.689l.533,2.667h4.267l-3.733-16Zm-3.111,10.667c.355-.889,1.778-4.711,1.778-4.711s.356-.978.622-1.6l.267,1.511s.889,4,1.067,4.889h-3.733Z" transform="translate(-318.578 -179.867)" fill="#293688"/>
    <path id="Path_484" data-name="Path 484" d="M57.867,192.311,57.422,190a12.885,12.885,0,0,0-6.222-7.022l4,14.222H60l7.2-16H62.4Z" transform="translate(-45.511 -180.578)" fill="#3c58bf"/>
    <path id="Path_485" data-name="Path 485" d="M57.867,192.311,57.422,190a12.885,12.885,0,0,0-6.222-7.022l4,14.222H60l7.2-16H63.289Z" transform="translate(-45.511 -180.578)" fill="#293688"/>
    <path id="Path_486" data-name="Path 486" d="M0,180.4l.8.178c5.689,1.333,9.6,4.711,11.111,8.711l-1.6-7.556c-.267-1.067-1.067-1.333-2.044-1.333Z" transform="translate(0 -179.867)" fill="#ffbc00"/>
    <path id="Path_487" data-name="Path 487" d="M0,180.4H0c5.689,1.333,10.4,4.8,11.911,8.8L10.4,182.889A2.17,2.17,0,0,0,8.267,181.2Z" transform="translate(0 -179.867)" fill="#f7981d"/>
    <path id="Path_488" data-name="Path 488" d="M0,180.4H0c5.689,1.333,10.4,4.8,11.911,8.8l-1.067-3.467a3.135,3.135,0,0,0-1.867-2.578Z" transform="translate(0 -179.867)" fill="#ed7c00"/>
    <g id="Group_230" data-name="Group 230" transform="translate(5.778 2.311)">
      <path id="Path_489" data-name="Path 489" d="M63.022,205.289,60,202.267l-1.422,3.378-.356-2.222A12.886,12.886,0,0,0,52,196.4l4,14.222h4.8Z" transform="translate(-52 -196.4)" fill="#051244"/>
      <path id="Path_490" data-name="Path 490" d="M189.333,293.111l-3.822-3.911-.711,3.911Z" transform="translate(-170.044 -278.889)" fill="#051244"/>
      <path id="Path_491" data-name="Path 491" d="M255.733,274.8h0c.356.356.533.622.444.978,0,1.067-1.422,1.6-2.667,1.6a9.662,9.662,0,0,1-4.267-.889l-.622-.267L248,279.867a14.413,14.413,0,0,0,5.067.889c2.844,0,5.156-.8,6.489-2.222Z" transform="translate(-226.222 -266.089)" fill="#051244"/>
      <path id="Path_492" data-name="Path 492" d="M364,231.245h4.178l.889-2.667h5.689l.533,2.667h4.267l-1.511-6.489-5.333-5.156.267,1.422s.889,4,1.067,4.889h-3.733c.356-.889,1.778-4.711,1.778-4.711s.355-.978.622-1.6" transform="translate(-329.333 -217.022)" fill="#051244"/>
    </g>
  </g>
</svg>
