<svg xmlns="http://www.w3.org/2000/svg" width="45.142" height="20.094" viewBox="0 0 45.142 20.094">
  <g id="visa-electron-seeklogo.com" transform="translate(0 0)">
    <path id="Path_477" data-name="Path 477" d="M17.139.257l-5.91,14.1H7.373L4.465,3.1A1.546,1.546,0,0,0,3.6,1.866,15.267,15.267,0,0,0,0,.667L.086.257H6.293A1.7,1.7,0,0,1,7.976,1.694L9.512,9.854l3.794-9.6Zm5.213,0-3.016,14.1H15.688L18.7.257Zm9.895,9.5c.015-3.72-5.144-3.927-5.111-5.589.012-.505.494-1.043,1.548-1.181a6.889,6.889,0,0,1,3.6.631L32.92.623A9.834,9.834,0,0,0,29.508,0C25.9,0,23.365,1.915,23.345,4.66c-.024,2.03,1.812,3.162,3.192,3.838,1.422.691,1.9,1.134,1.892,1.752-.01.946-1.135,1.365-2.182,1.38a7.622,7.622,0,0,1-3.746-.891l-.662,3.091a11.071,11.071,0,0,0,4.055.748c3.833,0,6.341-1.893,6.352-4.825Zm9.522,4.6h3.373L42.195.257H39.083A1.66,1.66,0,0,0,37.53,1.291L32.056,14.357h3.831l.76-2.106h4.68Zm-4.072-5,1.921-5.295,1.1,5.295ZM27.02,18.238H25.538v1.379H27.2v.415H25.038V16.2h2.072v.415H25.538v1.209H27.02ZM27.962,16h.5v4.031h-.5Zm1.76,2.748a.878.878,0,0,0,.942.954,1.793,1.793,0,0,0,.761-.142l.091.358a2.243,2.243,0,0,1-.92.176A1.28,1.28,0,0,1,29.244,18.7a1.329,1.329,0,0,1,1.289-1.476,1.156,1.156,0,0,1,1.136,1.289,1.2,1.2,0,0,1-.017.233Zm1.465-.358a.709.709,0,0,0-.693-.806.819.819,0,0,0-.767.806Zm3.2,1.544a1.93,1.93,0,0,1-.789.159,1.305,1.305,0,0,1-1.368-1.4,1.4,1.4,0,0,1,1.476-1.465,1.57,1.57,0,0,1,.693.148l-.113.38a1.225,1.225,0,0,0-.579-.131.954.954,0,0,0-.971,1.039.942.942,0,0,0,.954,1.028,1.428,1.428,0,0,0,.613-.131Zm1.4-3.31v.659H36.5v.38h-.715v1.482c0,.341.1.534.375.534a.923.923,0,0,0,.29-.034l.023.381a1.365,1.365,0,0,1-.443.068.713.713,0,0,1-.539-.21,1.074,1.074,0,0,1-.193-.721v-1.5h-.426v-.38H35.3v-.511ZM37.2,18.141c0-.324-.006-.6-.023-.857h.437l.023.545h.017a.831.831,0,0,1,.766-.6,1.056,1.056,0,0,1,.137.011v.472a.768.768,0,0,0-.171-.012.7.7,0,0,0-.67.636,1.506,1.506,0,0,0-.017.233v1.465h-.5Zm4.428.494a1.346,1.346,0,0,1-1.369,1.459,1.309,1.309,0,0,1-1.317-1.414,1.343,1.343,0,0,1,1.362-1.454A1.3,1.3,0,0,1,41.629,18.635Zm-2.175.029c0,.6.341,1.056.829,1.056s.834-.449.834-1.068c0-.465-.233-1.051-.823-1.051S39.455,18.147,39.455,18.664Zm2.94-.636c0-.289-.006-.517-.023-.744h.443l.029.454h.011a1.018,1.018,0,0,1,.908-.511c.38,0,.971.227.971,1.169v1.635h-.5V18.448c0-.443-.165-.812-.636-.812a.72.72,0,0,0-.67.511.709.709,0,0,0-.034.233v1.652h-.5Z" fill="#3c3c3c"/>
  </g>
</svg>
