<svg xmlns="http://www.w3.org/2000/svg" width="52.991" height="23.589" viewBox="0 0 52.991 23.589">
  <g id="visa-electron-seeklogo.com" transform="translate(0 0)">
    <path id="Path_477" data-name="Path 477" d="M20.119.3,13.182,16.853H8.655L5.241,3.644A1.814,1.814,0,0,0,4.224,2.19,17.921,17.921,0,0,0,0,.783L.1.3H7.388A2,2,0,0,1,9.362,1.989l1.8,9.578L15.62.3Zm6.119,0L22.7,16.853H18.416L21.956.3ZM37.854,11.449c.018-4.367-6.039-4.61-6-6.561.015-.593.58-1.225,1.817-1.386a8.086,8.086,0,0,1,4.223.741l.75-3.512A11.544,11.544,0,0,0,34.639,0C30.406,0,27.428,2.248,27.4,5.47c-.028,2.383,2.127,3.712,3.747,4.505,1.669.811,2.229,1.332,2.221,2.056-.012,1.11-1.333,1.6-2.561,1.62a8.947,8.947,0,0,1-4.4-1.046l-.777,3.628a13,13,0,0,0,4.761.878c4.5,0,7.443-2.223,7.457-5.664Zm11.178,5.4h3.959L49.532.3H45.879a1.948,1.948,0,0,0-1.823,1.213L37.63,16.853h4.5l.892-2.472h5.494Zm-4.78-5.864,2.255-6.215,1.3,6.215ZM31.718,21.409h-1.74v1.619h1.946v.487H29.392V19.023h2.433v.487H29.979v1.419h1.74Zm1.105-2.626h.586v4.732h-.586Zm2.066,3.226A1.03,1.03,0,0,0,36,23.129a2.1,2.1,0,0,0,.894-.166l.107.42a2.633,2.633,0,0,1-1.08.206,1.5,1.5,0,0,1-1.586-1.633,1.56,1.56,0,0,1,1.513-1.733,1.357,1.357,0,0,1,1.333,1.513,1.408,1.408,0,0,1-.02.273Zm1.719-.42a.833.833,0,0,0-.813-.946.961.961,0,0,0-.9.946ZM40.366,23.4a2.266,2.266,0,0,1-.926.187,1.532,1.532,0,0,1-1.606-1.646,1.644,1.644,0,0,1,1.733-1.719,1.843,1.843,0,0,1,.813.173l-.133.447a1.438,1.438,0,0,0-.68-.154,1.12,1.12,0,0,0-1.14,1.22,1.106,1.106,0,0,0,1.12,1.206,1.676,1.676,0,0,0,.72-.153Zm1.645-3.886v.773h.839v.446h-.839v1.74c0,.4.113.627.44.627a1.083,1.083,0,0,0,.34-.04l.027.447a1.6,1.6,0,0,1-.52.08.837.837,0,0,1-.633-.246,1.26,1.26,0,0,1-.227-.847v-1.76h-.5v-.446h.5v-.6ZM43.67,21.3c0-.38-.007-.706-.027-1.007h.513l.027.64h.02a.976.976,0,0,1,.9-.706,1.24,1.24,0,0,1,.16.013v.554a.9.9,0,0,0-.2-.014.817.817,0,0,0-.786.747,1.768,1.768,0,0,0-.02.273v1.719H43.67Zm5.2.58a1.58,1.58,0,0,1-1.606,1.713,1.537,1.537,0,0,1-1.546-1.66,1.576,1.576,0,0,1,1.6-1.706A1.526,1.526,0,0,1,48.868,21.875Zm-2.553.033c0,.706.4,1.24.973,1.24s.98-.527.98-1.253c0-.546-.273-1.233-.966-1.233S46.315,21.3,46.315,21.909Zm3.452-.747c0-.34-.007-.606-.027-.873h.52l.034.533h.013a1.2,1.2,0,0,1,1.066-.6c.446,0,1.14.267,1.14,1.373v1.92h-.586v-1.86c0-.52-.193-.953-.746-.953a.846.846,0,0,0-.786.6.833.833,0,0,0-.04.273v1.939h-.586Z" fill="#1a1f71"/>
  </g>
</svg>
