<svg xmlns="http://www.w3.org/2000/svg" width="44.96" height="17.186" viewBox="0 0 44.96 17.186">
  <g id="western-union" transform="translate(0 0)">
    <g id="Group_231" data-name="Group 231" transform="translate(5.366 0)">
      <path id="Path_493" data-name="Path 493" d="M70.15,170.024h-7.4L59.2,153.2h5.874L66.6,163.57l1.6-10.37h6.744l1.6,10.66,1.6-10.66h5.8l-3.553,16.824H73.123L71.6,159.146" transform="translate(-59.2 -153.2)" fill="#3c3c3c"/>
      <path id="Path_494" data-name="Path 494" d="M70.15,170.024h-7.4L59.2,153.2h5.874L66.6,163.57l1.6-10.37h6.744l1.6,10.66,1.6-10.66h5.8l-3.553,16.824H73.123L71.6,159.146" transform="translate(-59.2 -153.2)" fill="#3c3c3c"/>
    </g>
    <path id="Path_495" data-name="Path 495" d="M127.727,169.446a6.471,6.471,0,0,0,2.538,1.305h.58l1.523-10.877,1.523,10.877h7.252L144.7,154h-5.8l-1.6,10.587L135.776,154h-6.744l-1.523,10.37L125.986,154h0v10.225A5.878,5.878,0,0,0,127.727,169.446Z" transform="translate(-114.529 -153.927)" fill="#3c3c3c"/>
    <path id="Path_496" data-name="Path 496" d="M4.5,169.951H3.481L0,153.2H1.015" transform="translate(0 -153.2)" fill="#3c3c3c"/>
    <path id="Path_497" data-name="Path 497" d="M34.1,169.951h-.943L29.6,153.2h1.015" transform="translate(-26.917 -153.2)" fill="#3c3c3c"/>
    <path id="Path_498" data-name="Path 498" d="M309.142,153.2v10.515a2.605,2.605,0,0,1-.435,1.6,1.377,1.377,0,0,1-1.088.58,1.409,1.409,0,0,1-1.16-.58,2.719,2.719,0,0,1-.363-1.668V153.2h-1.233L301.6,168.718a5.23,5.23,0,0,0,2.176,1.16,11.934,11.934,0,0,0,3.916.508c2.683,0,4.714-.58,6.019-1.668,1.305-1.16,1.958-2.9,1.958-5.294V153.2" transform="translate(-274.261 -153.2)" fill="#3c3c3c"/>
    <path id="Path_499" data-name="Path 499" d="M280.8,153.2v10.225a10.875,10.875,0,0,0,.363,3.046,4.667,4.667,0,0,0,1.088,1.813l3.191-15.083" transform="translate(-255.347 -153.2)" fill="#3c3c3c"/>
    <path id="Path_500" data-name="Path 500" d="M470.4,160.4h.29l.073.145.145.073.145-.073.073-.072-.073-.073-.145-.073a.377.377,0,0,1-.29-.145l-.072-.218.072-.145.145-.145c.073,0,.145-.073.29-.073s.217,0,.29.073a.377.377,0,0,1,.145.29h-.29l-.073-.145h-.218v.145l.145.073c.145,0,.217.073.29.073l.145.145.072.145-.29.145-.145.145-.29.073a.426.426,0,0,1-.363-.145.266.266,0,0,1-.073-.218" transform="translate(-427.76 -159.02)" fill="#3c3c3c"/>
    <path id="Path_501" data-name="Path 501" d="M482.4,159.6h.435l.218.725.145-.725h.435v1.16h-.29v-.87l-.218.87h-.217l-.218-.87v.87h-.29" transform="translate(-438.673 -159.02)" fill="#3c3c3c"/>
    <path id="Path_502" data-name="Path 502" d="M301.6,168.718a5.23,5.23,0,0,0,2.176,1.16,11.933,11.933,0,0,0,3.916.508h.29l3.553-17.186h-2.393v10.515a2.605,2.605,0,0,1-.435,1.6,1.377,1.377,0,0,1-1.088.58,1.409,1.409,0,0,1-1.16-.58,2.719,2.719,0,0,1-.363-1.668V153.2h-1.233Z" transform="translate(-274.261 -153.2)" fill="#3c3c3c"/>
  </g>
</svg>
