<svg xmlns="http://www.w3.org/2000/svg" width="64.624" height="24.703" viewBox="0 0 64.624 24.703">
  <g id="western-union" transform="translate(0 0)">
    <g id="Group_231" data-name="Group 231" transform="translate(7.713 0)">
      <path id="Path_493" data-name="Path 493" d="M74.939,177.382H64.307L59.2,153.2h8.443l2.189,14.905L72.125,153.2h9.694l2.293,15.322L86.4,153.2h8.339l-5.107,24.182H79.213l-2.189-15.635" transform="translate(-59.2 -153.2)" fill="#ffdd12"/>
      <path id="Path_494" data-name="Path 494" d="M74.939,177.382H64.307L59.2,153.2h8.443l2.189,14.905L72.125,153.2h9.694l2.293,15.322L86.4,153.2h8.339l-5.107,24.182H79.213l-2.189-15.635" transform="translate(-59.2 -153.2)" fill="#ffdd12"/>
    </g>
    <path id="Path_495" data-name="Path 495" d="M128.506,176.2a9.3,9.3,0,0,0,3.648,1.876h.834l2.189-15.635,2.189,15.635h10.423L152.9,154h-8.339l-2.293,15.218L140.076,154h-9.694l-2.189,14.905L126,154h0v14.7C125.692,172.032,126.63,174.534,128.506,176.2Z" transform="translate(-109.536 -153.896)" fill="#ffc715"/>
    <path id="Path_496" data-name="Path 496" d="M6.462,177.278H5L0,153.2H1.459" transform="translate(0 -153.2)" fill="#fff315"/>
    <path id="Path_497" data-name="Path 497" d="M36.062,177.278H34.707L29.6,153.2h1.459" transform="translate(-25.743 -153.2)" fill="#ffdd12"/>
    <path id="Path_498" data-name="Path 498" d="M312.44,153.2v15.114a3.745,3.745,0,0,1-.625,2.293,1.979,1.979,0,0,1-1.564.834,2.025,2.025,0,0,1-1.668-.834,3.908,3.908,0,0,1-.521-2.4V153.2H306.29l-4.69,22.306a7.518,7.518,0,0,0,3.127,1.668,17.153,17.153,0,0,0,5.629.73c3.857,0,6.775-.834,8.651-2.4,1.876-1.668,2.814-4.169,2.814-7.609V153.2" transform="translate(-262.304 -153.2)"/>
    <path id="Path_499" data-name="Path 499" d="M280.8,153.2v14.7a15.628,15.628,0,0,0,.521,4.378,6.71,6.71,0,0,0,1.563,2.606l4.586-21.681" transform="translate(-244.214 -153.2)" fill="#ffa515"/>
    <path id="Path_500" data-name="Path 500" d="M470.4,160.747h.417l.1.208.208.1.209-.1.1-.1-.1-.1-.209-.1a.542.542,0,0,1-.417-.208l-.1-.313.1-.208.209-.208c.1,0,.208-.1.417-.1s.313,0,.417.1a.542.542,0,0,1,.208.417h-.417l-.1-.208h-.313v.208l.209.1c.208,0,.313.1.417.1l.208.208.1.208-.417.208-.208.208-.417.1a.612.612,0,0,1-.521-.208.383.383,0,0,1-.1-.313" transform="translate(-409.111 -158.766)"/>
    <path id="Path_501" data-name="Path 501" d="M482.4,159.6h.625l.313,1.042.208-1.042h.625v1.668h-.417v-1.251l-.313,1.251h-.313l-.313-1.251v1.251H482.4" transform="translate(-419.548 -158.766)"/>
    <path id="Path_502" data-name="Path 502" d="M301.6,175.506a7.517,7.517,0,0,0,3.127,1.668,17.152,17.152,0,0,0,5.629.73h.417l5.107-24.7h-3.44v15.114a3.745,3.745,0,0,1-.625,2.293,1.979,1.979,0,0,1-1.563.834,2.025,2.025,0,0,1-1.668-.834,3.909,3.909,0,0,1-.521-2.4V153.2H306.29Z" transform="translate(-262.304 -153.2)" fill="#44423e"/>
  </g>
</svg>
